<?xml version="1.0" encoding="UTF-8"?>
<!-- Generator: visioncortex VTracer 0.6.4 -->
<svg version="1.1" xmlns="http://www.w3.org/2000/svg" width="1254" height="1254">
<path d="M0 0 C3.52679326 0.00513117 7.05356954 -0.00146899 10.5803603 -0.00648667 C16.74511767 -0.013671 22.90983993 -0.01351512 29.07459886 -0.00839235 C38.24199374 -0.00079532 47.40935927 -0.0047114 56.57675399 -0.01080896 C72.95337538 -0.02131699 89.32998113 -0.02043711 105.706604 -0.01465113 C120.03648117 -0.00961333 134.36635261 -0.00830975 148.69623048 -0.01069642 C150.1238986 -0.01092558 150.1238986 -0.01092558 151.5804085 -0.01115936 C155.44428292 -0.01178207 159.30815733 -0.01241887 163.17203175 -0.01307889 C199.38978698 -0.01919173 235.60753227 -0.01365789 271.82528597 -0.0028851 C303.98477409 0.00660784 336.14424638 0.00575433 368.30373437 -0.00380708 C404.46120796 -0.01452129 440.61867277 -0.01876044 476.77614773 -0.01258255 C480.63191424 -0.01194114 484.48768076 -0.01131546 488.34344728 -0.01069642 C489.29278961 -0.01053827 490.24213194 -0.01038011 491.22024221 -0.01021717 C505.54127997 -0.00794449 519.86231137 -0.01059848 534.18334825 -0.01565553 C550.46851169 -0.02137758 566.75365708 -0.0199367 583.03881827 -0.00909404 C592.14730993 -0.00322928 601.25576249 -0.00282687 610.36425312 -0.01038639 C616.45422845 -0.01488239 622.54417254 -0.01205977 628.63414326 -0.00337685 C632.09985923 0.00136401 635.56549773 0.0030424 639.03121117 -0.00418882 C670.04944746 -0.05476518 670.04944746 -0.05476518 684.81911523 4.25693511 C687.37621968 4.76410743 689.93921383 5.24226591 692.50661523 5.69443511 C699.36184479 6.94533216 706.09123951 8.42829392 712.81911523 10.25693511 C713.58916894 10.46189605 714.35922265 10.66685698 715.15261132 10.87802886 C726.49164701 13.91148333 737.14924388 17.33143894 747.81911523 22.25693511 C749.19377118 22.85836793 750.57016053 23.45585031 751.94802148 24.04990386 C752.65466943 24.35484771 753.36131738 24.65979155 754.0893789 24.97397612 C755.43978846 25.55652724 756.79021053 26.13904933 758.14064843 26.72153472 C765.54926514 29.95436824 772.66449906 33.64690561 779.69411523 37.63193511 C780.39173974 38.0269522 781.08936425 38.42196929 781.8081289 38.82895659 C783.81386497 39.96802518 785.81696535 41.11157759 787.81911523 42.25693511 C789.24030664 43.06711089 789.24030664 43.06711089 790.69020898 43.89365386 C796.09268906 47.04870223 801.12162746 50.57872637 806.14333398 54.30771636 C809.26626822 56.58267137 812.47947248 58.68008767 815.74880273 60.73740386 C817.81911523 62.25693511 817.81911523 62.25693511 820.17849023 64.63193511 C822.98730368 67.42412836 826.01143041 69.73515581 829.19411523 72.06943511 C833.75286543 75.48642473 837.5959752 78.93161262 841.19802148 83.37802886 C843.54792269 86.1016493 846.25132373 88.33307491 849.02224023 90.61631011 C850.93103522 92.35912293 852.39820975 94.09926383 853.81911523 96.25693511 C853.81911523 96.91693511 853.81911523 97.57693511 853.81911523 98.25693511 C854.37599023 98.48381011 854.93286523 98.71068511 855.50661523 98.94443511 C860.6662717 101.87288878 863.66051718 106.3754654 866.81911523 111.25693511 C867.84818351 112.70348071 868.8904357 114.1407171 869.94411523 115.56943511 C870.44169335 116.24619292 870.93927148 116.92295073 871.45192773 117.62021636 C872.74012184 119.38399852 872.74012184 119.38399852 874.81911523 120.25693511 C875.08724023 121.16443511 875.35536523 122.07193511 875.63161523 123.00693511 C876.81963341 126.25835327 877.96113878 127.37090664 880.37697656 129.69052886 C883.32528672 132.89289181 885.4784486 136.68992139 887.75661523 140.38193511 C888.28585595 141.2314273 888.81509668 142.08091948 889.360375 142.95615386 C894.72957248 151.63030056 899.53550872 160.37451561 903.66677148 169.70615386 C904.67310895 171.93374154 905.7485595 174.09222553 906.88161523 176.25693511 C908.90553549 180.23162189 910.35075827 184.35679305 911.82302148 188.56162261 C912.68799643 190.90214307 913.66350481 193.08053426 914.75661523 195.31943511 C917.76840233 201.92174487 919.37900548 209.04023713 921.22536523 216.03476714 C921.74723554 217.98791829 922.29663222 219.93367091 922.85036523 221.87802886 C925.0545872 229.70834965 926.83878783 237.6094044 928.50661523 245.56943511 C928.72124414 246.55242583 928.93587304 247.53541655 929.15700585 248.54819487 C932.85214931 266.73910277 931.96265694 285.69103946 931.94609887 304.15378569 C931.9466986 306.96548202 931.94880106 309.7771768 931.95082612 312.58887242 C931.95441788 318.67693134 931.95434059 324.76498137 931.95177896 330.85304068 C931.94798001 339.90655186 931.94993873 348.9600556 931.95298726 358.01356674 C931.95824117 374.18771727 931.95780134 390.36186384 931.95490835 406.53601474 C931.95238914 420.69060316 931.9517378 434.84519014 931.952931 448.99977874 C931.95300738 449.94003133 931.95308377 450.88028393 931.95316247 451.84902903 C931.95347382 455.66617416 931.95379222 459.48331928 931.95412223 463.3004644 C931.9571787 499.08128218 931.95441178 534.86209745 931.94902533 570.64291484 C931.94428001 602.40634612 931.94470465 634.16977339 931.94948632 665.93320464 C931.95484523 701.65012564 931.9569619 737.36704442 931.95387406 773.08396577 C931.95355336 776.89400767 931.95324052 780.70404958 931.952931 784.51409148 C931.95285192 785.45216634 931.95277284 786.39024119 931.95269137 787.35674256 C931.95155566 801.49967743 931.95288087 815.64261069 931.95541055 829.78554534 C931.95827368 845.87262383 931.95754672 861.95969776 931.9521298 878.04677569 C931.94920073 887.04131551 931.94899141 896.03584544 931.95277598 905.030385 C931.95502803 911.04823012 931.95360542 917.06606734 931.94927121 923.08391129 C931.94690632 926.50595881 931.94660817 929.92797079 931.94967719 933.3500201 C931.98489381 975.89496054 931.98489381 975.89496054 928.81911523 985.19443511 C927.70022459 988.27276747 927.70022459 988.27276747 927.42849023 991.70224761 C926.76893763 997.3026928 925.40483224 1002.72286844 924.06911523 1008.19443511 C923.8010708 1009.29601958 923.53302636 1010.39760405 923.25685937 1011.53256987 C917.07781373 1036.63482843 917.07781373 1036.63482843 911.88942773 1046.16318511 C910.37924898 1049.1174034 909.58879601 1052.03827003 908.81911523 1055.25693511 C908.15911523 1055.25693511 907.49911523 1055.25693511 906.81911523 1055.25693511 C906.70567773 1055.96591948 906.59224023 1056.67490386 906.47536523 1057.40537261 C905.76725728 1060.48227027 904.66971668 1063.03153785 903.31911523 1065.88193511 C902.00368414 1068.67340225 900.79560837 1071.32745568 899.81911523 1074.25693511 C899.13849023 1074.87568511 899.13849023 1074.87568511 898.44411523 1075.50693511 C896.53463354 1077.56330001 895.73499226 1079.72104981 894.69802148 1082.29990386 C893.42240698 1085.14027214 891.75616821 1087.67726979 890.06911523 1090.28818511 C888.93123228 1092.08035076 887.89772945 1093.89405904 886.88161523 1095.75693511 C884.96812872 1099.16557504 882.65141194 1102.1772555 880.26833398 1105.26865386 C878.89858116 1107.14791042 877.75038688 1109.03335644 876.63161523 1111.06943511 C875.11732532 1113.73249668 874.01246626 1115.24636333 871.81911523 1117.25693511 C869.92856314 1119.53863591 868.11087454 1121.85507795 866.36989648 1124.25302886 C865.85813867 1124.95556792 865.34638085 1125.65810698 864.81911523 1126.38193511 C864.10755273 1127.3758023 864.10755273 1127.3758023 863.38161523 1128.38974761 C861.71185172 1130.38511501 859.90520776 1131.71822636 857.81911523 1133.25693511 C856.56746853 1135.34028146 856.56746853 1135.34028146 855.81911523 1137.25693511 C855.15911523 1137.25693511 854.49911523 1137.25693511 853.81911523 1137.25693511 C853.61286523 1137.79318511 853.40661523 1138.32943511 853.19411523 1138.88193511 C851.28661097 1142.17671519 848.77092139 1144.85057139 845.81911523 1147.25693511 C845.15911523 1147.25693511 844.49911523 1147.25693511 843.81911523 1147.25693511 C843.56516992 1147.83572417 843.3112246 1148.41451323 843.04958398 1149.01084136 C839.52025604 1155.45326537 832.9101986 1160.35864175 826.81911523 1164.25693511 C826.15911523 1164.25693511 825.49911523 1164.25693511 824.81911523 1164.25693511 C824.81911523 1164.91693511 824.81911523 1165.57693511 824.81911523 1166.25693511 C824.20036523 1166.33943511 823.58161523 1166.42193511 822.94411523 1166.50693511 C822.24286523 1166.75443511 821.54161523 1167.00193511 820.81911523 1167.25693511 C820.5277871 1167.87568511 820.23645898 1168.49443511 819.93630273 1169.13193511 C818.58835483 1171.69586399 817.2879821 1172.53650705 814.81911523 1174.00693511 C814.11786523 1174.43490386 813.41661523 1174.86287261 812.69411523 1175.30381011 C810.81911523 1176.25693511 810.81911523 1176.25693511 808.81911523 1176.25693511 C808.81911523 1176.91693511 808.81911523 1177.57693511 808.81911523 1178.25693511 C803.40735052 1182.25693511 803.40735052 1182.25693511 800.81911523 1182.25693511 C800.81911523 1182.91693511 800.81911523 1183.57693511 800.81911523 1184.25693511 C799.32888085 1185.36679839 799.32888085 1185.36679839 797.22536523 1186.57724761 C796.06255029 1187.25074248 796.06255029 1187.25074248 794.87624414 1187.93784331 C794.0323916 1188.4143936 793.18853906 1188.8909439 792.31911523 1189.38193511 C791.45850488 1189.87330962 790.59789453 1190.36468413 789.71120507 1190.87094878 C781.88848463 1195.29690477 773.93211044 1199.39247382 765.81911523 1203.25693511 C764.65380273 1203.81252105 763.48849023 1204.36810698 762.28786523 1204.94052886 C756.6684722 1207.57297816 751.02088995 1210.06048871 745.23317773 1212.29990386 C743.3891775 1213.03093955 741.5715371 1213.82880831 739.76833398 1214.65537261 C734.6773069 1216.84514244 729.33992855 1218.22464027 724.00661523 1219.69443511 C722.90527246 1220.00082915 721.80392968 1220.30722319 720.66921289 1220.62290191 C712.68187364 1222.81608489 704.66829301 1224.74141513 696.56130273 1226.43271636 C694.05545717 1226.98463015 691.56617175 1227.61755119 689.10036523 1228.32724761 C686.46951925 1229.07265397 684.14924265 1229.57587 681.44411523 1229.81943511 C680.77638085 1229.88259917 680.10864648 1229.94576323 679.42067773 1230.01084136 C678.5621621 1230.0920523 677.70364648 1230.17326323 676.81911523 1230.25693511 C675.52773753 1230.42435771 674.23635983 1230.5917803 672.90584947 1230.76427631 C667.21124126 1231.39502197 661.55389178 1231.39632102 655.82980497 1231.38556956 C654.0495248 1231.38819912 654.0495248 1231.38819912 652.23327939 1231.3908818 C648.94647396 1231.39472513 645.65970458 1231.39411668 642.372899 1231.39160402 C638.79404475 1231.38996648 635.21519634 1231.39411551 631.63634396 1231.3975132 C625.36613607 1231.40266146 619.0959359 1231.40408539 612.8257261 1231.40305709 C603.50121614 1231.40153162 594.17671471 1231.40569516 584.85220641 1231.41093171 C567.22765962 1231.42060292 549.60311574 1231.42341589 531.9785666 1231.42398877 C518.36528012 1231.42444837 504.75199477 1231.42650704 491.13870866 1231.4296894 C487.21957784 1231.43058695 483.30044702 1231.43147676 479.38131619 1231.43236427 C478.40698808 1231.43258532 477.43265996 1231.43280637 476.42880676 1231.43303412 C449.02138864 1231.43918858 421.61397093 1231.44313466 394.2065521 1231.44269084 C392.65652094 1231.44266747 392.65652094 1231.44266747 391.07517602 1231.44264363 C385.83777229 1231.44256052 380.60036856 1231.44246148 375.36296482 1231.44235892 C373.80273209 1231.442329 373.80273209 1231.442329 372.2109795 1231.44229848 C370.10753067 1231.44225804 368.00408184 1231.44221625 365.90063301 1231.44217309 C333.18538631 1231.44156054 300.47014998 1231.44906304 267.75490625 1231.46274566 C230.99318428 1231.47811433 194.23146912 1231.48671138 157.46974374 1231.48578243 C153.54778372 1231.4857078 149.62582371 1231.4856591 145.70386369 1231.48562812 C144.25535386 1231.48561064 144.25535386 1231.48561064 142.77758121 1231.4855928 C127.25248371 1231.48556206 111.72739523 1231.49194191 96.20230041 1231.50056038 C80.59075203 1231.50904741 64.97921681 1231.51001862 49.36766739 1231.50345106 C40.09988273 1231.4997622 30.8321381 1231.50156787 21.5643577 1231.5113934 C15.36405677 1231.51740986 9.16378471 1231.51607947 2.96348509 1231.5089229 C-0.5629439 1231.50505538 -4.08929564 1231.50422499 -7.61571906 1231.51238025 C-26.26009873 1231.54710282 -44.11812383 1231.27374309 -62.18088477 1226.25693511 C-64.23730683 1225.7353958 -66.29680638 1225.22741029 -68.35691016 1224.72061919 C-71.36772953 1223.97862608 -74.37406406 1223.219226 -77.3805918 1222.46006011 C-78.91327768 1222.07485525 -80.44681282 1221.69301378 -81.98117774 1221.3145523 C-91.43648287 1218.97946094 -100.27560156 1216.26922143 -109.18088477 1212.25693511 C-111.01754482 1211.4761556 -112.85429853 1210.69558111 -114.69333594 1209.92041777 C-117.28819769 1208.82435882 -119.87617144 1207.71253555 -122.4640879 1206.60019683 C-123.78133779 1206.03542757 -125.09971235 1205.47327469 -126.41916602 1204.91367339 C-133.68793446 1201.82946469 -140.59063253 1198.64976707 -147.18088477 1194.25693511 C-148.98310361 1193.25897175 -150.79448124 1192.27719267 -152.61838477 1191.31943511 C-160.32868473 1187.15055568 -167.27308278 1182.33668341 -174.04025977 1176.77256011 C-176.33111251 1175.15056948 -178.54492613 1174.19703224 -181.18088477 1173.25693511 C-181.18088477 1172.59693511 -181.18088477 1171.93693511 -181.18088477 1171.25693511 C-182.17088477 1170.92693511 -183.16088477 1170.59693511 -184.18088477 1170.25693511 C-185.30723502 1169.13058486 -186.42923876 1167.99954263 -187.52854102 1166.84677886 C-189.63074199 1164.82409376 -191.88760999 1163.05952405 -194.18088477 1161.25693511 C-197.75290764 1158.43636002 -201.04795722 1155.56888709 -204.18088477 1152.25693511 C-207.23124481 1149.12184284 -210.38428142 1146.19031816 -213.68088477 1143.31943511 C-217.25237857 1140.17438833 -220.22409801 1136.97403847 -223.18088477 1133.25693511 C-223.94400977 1132.51443511 -224.70713477 1131.77193511 -225.49338477 1131.00693511 C-227.18088477 1129.25693511 -227.18088477 1129.25693511 -227.18088477 1127.25693511 C-228.17088477 1126.92693511 -229.16088477 1126.59693511 -230.18088477 1126.25693511 C-231.12142762 1124.87971165 -232.05376859 1123.49570892 -232.93088477 1122.07724761 C-234.9306735 1119.16505527 -237.37604399 1116.66041048 -239.79025977 1114.08896636 C-241.18088477 1112.25693511 -241.18088477 1112.25693511 -241.18088477 1109.25693511 C-241.84088477 1109.25693511 -242.50088477 1109.25693511 -243.18088477 1109.25693511 C-243.24275977 1108.70006011 -243.30463477 1108.14318511 -243.36838477 1107.56943511 C-244.0629355 1105.05935131 -244.0629355 1105.05935131 -246.36838477 1103.06943511 C-251.51620234 1097.92161753 -255.053082 1091.79688635 -258.18088477 1085.25693511 C-260.01026865 1081.93281073 -261.92624708 1078.66617425 -263.93088477 1075.44443511 C-265.18088477 1073.25693511 -265.18088477 1073.25693511 -265.18088477 1071.25693511 C-265.84088477 1070.92693511 -266.50088477 1070.59693511 -267.18088477 1070.25693511 C-268.03905417 1068.43259539 -268.81847406 1066.57084007 -269.55588477 1064.69443511 C-270.94009325 1061.18926203 -272.39080539 1057.77623319 -274.09494727 1054.41709136 C-280.49557571 1041.79204002 -285.15751407 1029.06316485 -288.18088477 1015.25693511 C-288.67406184 1013.2968724 -289.17365123 1011.33840734 -289.68088477 1009.38193511 C-291.16566676 1003.47526139 -292.46549042 997.52985833 -293.73557227 991.57382964 C-293.9734043 990.47724028 -293.9734043 990.47724028 -294.21604102 989.35849761 C-294.35405127 988.7121939 -294.49206153 988.06589019 -294.63425391 987.40000151 C-295.1507716 985.17997253 -295.1507716 985.17997253 -296.14572876 982.84744929 C-297.59382418 977.82462463 -297.91691845 972.86667638 -298.29001181 967.66564177 C-298.37427754 966.51905453 -298.45854327 965.37246729 -298.54536251 964.19113498 C-299.4356261 951.0349588 -299.45902351 937.89806741 -299.43485206 924.71762847 C-299.43605502 921.93360057 -299.4402619 919.14957887 -299.44430654 916.36555384 C-299.45145816 910.36251759 -299.45135567 904.35951745 -299.44621222 898.35647963 C-299.43858432 889.42910125 -299.44254705 880.50175281 -299.44862884 871.57437458 C-299.45911379 855.62148325 -299.45826619 839.66860802 -299.45247101 823.71571519 C-299.44742469 809.754427 -299.44613356 795.79314468 -299.4485163 781.83185576 C-299.44866907 780.90301851 -299.44882184 779.97418125 -299.44897924 779.01719741 C-299.449602 775.24602136 -299.4502388 771.47484531 -299.45089877 767.70366926 C-299.45700628 732.38222627 -299.45148651 697.06079349 -299.44070497 661.73935208 C-299.43121494 630.41089773 -299.43206424 599.08245963 -299.44162696 567.75400542 C-299.45235397 532.49400743 -299.45657301 497.23401844 -299.45040243 461.97401904 C-299.44976107 458.21001751 -299.44913538 454.44601598 -299.4485163 450.68201445 C-299.44835815 449.75533304 -299.44819999 448.82865162 -299.44803704 447.87388895 C-299.44576941 433.92701408 -299.44840895 419.98014575 -299.45347541 406.03327178 C-299.45921213 390.16290376 -299.45772563 374.29255425 -299.44691392 358.42218851 C-299.44107322 349.55814304 -299.44061149 340.69413772 -299.44820627 331.83009335 C-299.45273172 325.8893024 -299.44982753 319.94854325 -299.44119673 314.00775696 C-299.43649585 310.63639312 -299.43582598 307.26517222 -299.4420087 303.89380156 C-299.46408741 290.84243026 -299.24692384 277.86874266 -298.29001181 264.84822844 C-298.21252189 263.76799535 -298.13503196 262.68776225 -298.05519385 261.57479482 C-297.63890619 256.50843511 -297.08475149 252.02056162 -295.18088477 247.25693511 C-294.78441652 245.70983144 -294.41218074 244.15626062 -294.06760352 242.59677886 C-293.87424415 241.73101226 -293.68088477 240.86524566 -293.48166602 239.9732437 C-293.27928321 239.05623687 -293.0769004 238.13923003 -292.86838477 237.19443511 C-292.42491442 235.22686539 -291.98088962 233.25942057 -291.53635352 231.29209136 C-290.86747499 228.32020229 -290.20101485 225.34788239 -289.54270118 222.37363433 C-285.41209002 203.77132832 -285.41209002 203.77132832 -281.63010352 195.47959136 C-280.04879508 191.96320467 -278.63923462 188.40053802 -277.23239844 184.81162261 C-274.21010891 177.10959105 -271.14915063 169.52996256 -267.18088477 162.25693511 C-266.68717383 161.33654448 -266.1934629 160.41615386 -265.68479102 159.46787261 C-262.9220559 154.35577919 -260.08786576 149.28824837 -257.18088477 144.25693511 C-256.52088477 144.25693511 -255.86088477 144.25693511 -255.18088477 144.25693511 C-254.93338477 143.20506011 -254.68588477 142.15318511 -254.43088477 141.06943511 C-253.56123016 137.37340303 -251.56410955 135.16880247 -249.18088477 132.25693511 C-247.32828 129.36077449 -245.54644953 126.42884018 -243.76682227 123.48740386 C-243.2434629 122.75134917 -242.72010352 122.01529448 -242.18088477 121.25693511 C-241.52088477 121.25693511 -240.86088477 121.25693511 -240.18088477 121.25693511 C-240.11900977 120.70006011 -240.05713477 120.14318511 -239.99338477 119.56943511 C-239.0767275 116.96048749 -237.76223007 115.79349117 -235.77072852 113.94052886 C-233.66108182 111.70648039 -231.95927798 109.26147754 -230.18088477 106.75693511 C-227.41755265 102.89343525 -224.68149829 99.48827067 -221.18088477 96.25693511 C-220.01015074 95.09435004 -218.84379409 93.92734706 -217.68088477 92.75693511 C-214.84755144 89.92360178 -212.0142181 87.09026844 -209.18088477 84.25693511 C-208.44225196 83.49509917 -207.70361915 82.73326323 -206.94260352 81.94834136 C-206.13436133 81.1220523 -205.32611915 80.29576323 -204.49338477 79.44443511 C-203.72639258 78.6542398 -202.9594004 77.86404448 -202.16916602 77.04990386 C-200.18088477 75.25693511 -200.18088477 75.25693511 -198.18088477 75.25693511 C-198.18088477 74.59693511 -198.18088477 73.93693511 -198.18088477 73.25693511 C-196.49974783 71.92321351 -194.75892999 70.66422394 -192.99338477 69.44443511 C-189.96157533 67.30252145 -187.27570986 65.35413082 -184.68088477 62.69443511 C-181.48522368 59.57866555 -177.91914811 57.4769153 -174.13010352 55.13974761 C-171.26965144 53.31360469 -168.57813583 51.36075422 -165.86838477 49.31943511 C-145.47247037 34.25693511 -145.47247037 34.25693511 -138.18088477 34.25693511 C-138.18088477 33.59693511 -138.18088477 32.93693511 -138.18088477 32.25693511 C-134.09779079 30.52720288 -130.01436461 28.79825619 -125.93088477 27.06943511 C-124.2215879 26.34530425 -124.2215879 26.34530425 -122.47775977 25.60654448 C-120.1776511 24.63291894 -117.87678159 23.66108896 -115.57517188 22.69101714 C-113.36218516 21.75603304 -111.15190746 20.81460295 -108.94480079 19.86582183 C-103.23612634 17.43323781 -97.62524192 15.31149306 -91.61838477 13.75693511 C-90.86226905 13.55463286 -90.10615332 13.35233062 -89.327125 13.143898 C-87.74254315 12.72113632 -86.15700129 12.30195698 -84.57053321 11.88632964 C-82.19972766 11.26189802 -79.83458579 10.61913424 -77.46994727 9.97177886 C-69.56127535 7.82193603 -61.6252404 5.82090878 -53.61838477 4.06943511 C-52.93655127 3.91466704 -52.25471778 3.75989898 -51.55222266 3.60044097 C-34.50830391 -0.00022148 -17.34010431 -0.03629376 0 0 Z " fill="#1E2734" transform="translate(310.1808847701177,10.743064891546965)"/>
<path d="M0 0 C67.98 0 135.96 0 206 0 C206.64418739 5.79768648 207.15765045 11.2742227 207.16796875 17.05859375 C207.17220352 17.79629501 207.17643829 18.53399628 207.18080139 19.29405212 C207.19063936 21.67526024 207.19072425 24.0562752 207.1875 26.4375 C207.18659363 27.67043793 207.18659363 27.67043793 207.18566895 28.92828369 C207.13605471 53.88485137 204.40344535 78.31387458 201 103 C201.44214844 102.52820313 201.88429688 102.05640625 202.33984375 101.5703125 C204.38242235 99.63827345 206.37167964 98.94349962 209 98 C209.66 97.67 210.32 97.34 211 97 C211 96.34 211 95.68 211 95 C214.6328592 92.90411969 218.24928098 90.87535951 222 89 C223.485 88.01 223.485 88.01 225 87 C229.73076923 84 229.73076923 84 232 84 C232 83.34 232 82.68 232 82 C235.95542756 79.6732779 239.71888456 77.66487823 244 76 C245.485 75.01 245.485 75.01 247 74 C247.66 74 248.32 74 249 74 C249 73.34 249 72.68 249 72 C250.65 71.67 252.3 71.34 254 71 C254 70.34 254 69.68 254 69 C255.65 68.67 257.3 68.34 259 68 C259 67.34 259 66.68 259 66 C260.65 65.67 262.3 65.34 264 65 C264 64.34 264 63.68 264 63 C265.65 62.67 267.3 62.34 269 62 C269 61.34 269 60.68 269 60 C271.90600261 58.74335022 273.79604584 58 277 58 C277 57.34 277 56.68 277 56 C278.65 55.67 280.3 55.34 282 55 C282 54.34 282 53.68 282 53 C284.31 52.34 286.62 51.68 289 51 C289.02290463 106.74700656 289.04051769 162.49401265 289.05106533 218.241023 C289.05231599 224.82718591 289.05361032 231.41334882 289.05493164 237.99951172 C289.05519395 239.31066063 289.05545626 240.62180954 289.05572652 241.97269024 C289.06007408 263.18367133 289.06795661 284.39464971 289.0771528 305.60562919 C289.08651474 327.3810549 289.092061 349.15647918 289.09408849 370.93190682 C289.09545844 384.36110709 289.09978042 397.79029967 289.10791647 411.21949758 C289.11321527 420.43689368 289.11479717 429.65428583 289.11350138 438.87168334 C289.11286289 444.18416756 289.11381986 449.49663837 289.11920547 454.80912018 C289.12411116 459.68408314 289.12429214 464.55902383 289.12089889 469.43398787 C289.12048019 471.18665228 289.12171506 472.93931815 289.12488318 474.69197975 C289.13967475 483.38902371 289.0228922 492.05588294 288.55498409 500.74179268 C288.51621384 501.46913561 288.47744359 502.19647854 288.43749848 502.94586217 C288.11219232 508.38769893 287.763838 513.75622588 286 518.9375 C284.88110936 522.01583237 284.88110936 522.01583237 284.609375 525.4453125 C283.9498224 531.04575769 282.58571701 536.46593333 281.25 541.9375 C280.98195557 543.03908447 280.71391113 544.14066895 280.43774414 545.27563477 C274.2586985 570.37789332 274.2586985 570.37789332 269.0703125 579.90625 C267.56013375 582.86046829 266.76968078 585.78133492 266 589 C265.34 589 264.68 589 264 589 C263.8865625 589.70898438 263.773125 590.41796875 263.65625 591.1484375 C262.94814205 594.22533516 261.85060145 596.77460275 260.5 599.625 C259.18456891 602.41646714 257.97649314 605.07052057 257 608 C256.54625 608.4125 256.0925 608.825 255.625 609.25 C253.71551831 611.3063649 252.91587703 613.46411471 251.87890625 616.04296875 C250.60329175 618.88333703 248.93705298 621.42033468 247.25 624.03125 C246.11211705 625.82341565 245.07861422 627.63712393 244.0625 629.5 C242.14901349 632.90863993 239.83229671 635.92032039 237.44921875 639.01171875 C236.07946593 640.89097531 234.93127165 642.77642134 233.8125 644.8125 C232.29821009 647.47556157 231.19335103 648.98942822 229 651 C227.10944791 653.2817008 225.29175931 655.59814284 223.55078125 657.99609375 C223.03902344 658.69863281 222.52726562 659.40117188 222 660.125 C221.2884375 661.11886719 221.2884375 661.11886719 220.5625 662.1328125 C218.89273649 664.1281799 217.08609253 665.46129126 215 667 C213.7483533 669.08334635 213.7483533 669.08334635 213 671 C212.34 671 211.68 671 211 671 C210.79375 671.53625 210.5875 672.0725 210.375 672.625 C208.46749574 675.91978009 205.95180616 678.59363628 203 681 C202.34 681 201.68 681 201 681 C200.74605469 681.57878906 200.49210937 682.15757812 200.23046875 682.75390625 C196.70114081 689.19633027 190.09108337 694.10170664 184 698 C183.34 698 182.68 698 182 698 C182 698.66 182 699.32 182 700 C181.071875 700.12375 181.071875 700.12375 180.125 700.25 C179.42375 700.4975 178.7225 700.745 178 701 C177.56300781 701.928125 177.56300781 701.928125 177.1171875 702.875 C175.7692396 705.43892888 174.46886687 706.27957194 172 707.75 C171.29875 708.17796875 170.5975 708.6059375 169.875 709.046875 C168 710 168 710 166 710 C166 710.66 166 711.32 166 712 C160.58823529 716 160.58823529 716 158 716 C158 716.66 158 717.32 158 718 C156.50976562 719.10986328 156.50976562 719.10986328 154.40625 720.3203125 C153.63104004 720.76930908 152.85583008 721.21830566 152.05712891 721.6809082 C151.21327637 722.1574585 150.36942383 722.63400879 149.5 723.125 C148.20908447 723.86206177 148.20908447 723.86206177 146.89208984 724.61401367 C139.0693694 729.03996966 131.11299521 733.13553872 123 737 C121.8346875 737.55558594 120.669375 738.11117187 119.46875 738.68359375 C113.84935697 741.31604306 108.20177472 743.8035536 102.4140625 746.04296875 C100.57006227 746.77400444 98.75242187 747.5718732 96.94921875 748.3984375 C91.85819167 750.58820733 86.52081332 751.96770516 81.1875 753.4375 C80.08615723 753.74389404 78.98481445 754.05028809 77.85009766 754.3659668 C69.86275841 756.55914978 61.84917778 758.48448003 53.7421875 760.17578125 C51.23634194 760.72769504 48.74705652 761.36061609 46.28125 762.0703125 C43.65040402 762.81571886 41.33012742 763.31893489 38.625 763.5625 C37.95726562 763.62566406 37.28953125 763.68882812 36.6015625 763.75390625 C35.74304688 763.83511719 34.88453125 763.91632812 34 764 C33.38737763 764.07872312 32.77475526 764.15744623 32.14356858 764.23855489 C26.26741404 764.97295554 20.4958295 765.13876874 14.57859802 765.12025452 C13.56635432 765.12110894 12.55411061 765.12196337 11.51119286 765.12284368 C8.13952364 765.12448299 4.76790483 765.11900259 1.39624023 765.11352539 C-1.02870177 765.11324316 -3.45364386 765.11340196 -5.87858582 765.1139679 C-11.08898462 765.11419518 -16.29937216 765.1113697 -21.50976753 765.10573006 C-29.04300037 765.09758155 -36.57622716 765.09499641 -44.10946392 765.09374207 C-56.33347744 765.0915568 -68.55748426 765.08491099 -80.78149414 765.07543945 C-92.65161099 765.06625173 -104.52172601 765.05917755 -116.3918457 765.05493164 C-117.1242821 765.05466892 -117.8567185 765.05440619 -118.61134995 765.05413551 C-122.28599576 765.05283041 -125.96064158 765.05156672 -129.6352874 765.05032361 C-160.0901964 765.03996736 -190.54509727 765.02228871 -221 765 C-220.85002831 762.75073025 -220.69702161 760.50166272 -220.54272461 758.25268555 C-220.45784286 757.0002153 -220.37296112 755.74774506 -220.2855072 754.45732117 C-219.98063168 750.76546121 -219.42462618 747.40841488 -218.5625 743.8125 C-217.63801095 739.79897304 -216.75668534 735.80974462 -216.0625 731.75 C-214.79251833 724.5814258 -213.14067211 717.49744113 -211.53662109 710.39794922 C-210.99954079 707.99794798 -210.47618029 705.5953452 -209.95703125 703.19140625 C-208.43698131 696.18035688 -206.88756124 689.27165349 -204.69163513 682.43493652 C-203.99447909 679.98056336 -203.55800081 677.5869599 -203.15649414 675.06835938 C-201.96441842 668.34400898 -200.06987782 661.88235521 -198.12109375 655.34375 C-197.74896255 654.07905884 -197.37683136 652.81436768 -196.99342346 651.51135254 C-196.0141341 648.18371309 -195.02800158 644.85814095 -194.04040527 641.53295898 C-193.03354001 638.1378721 -192.03383011 634.74067951 -191.03320312 631.34375 C-189.57298838 626.39156787 -188.11048498 621.44007019 -186.64233398 616.49023438 C-186.34858383 615.49971069 -186.05483368 614.50918701 -185.75218201 613.48864746 C-185.19654042 611.6502679 -184.60732009 609.82196028 -184 608 C-183.34 608 -182.68 608 -182 608 C-181.85304688 607.14341797 -181.85304688 607.14341797 -181.703125 606.26953125 C-180.33504929 598.85125863 -178.26357454 592.35661727 -176 585 C-225.83 585 -275.66 585 -327 585 C-327.02202486 528.32665136 -327.04049691 471.65330674 -327.05106533 414.97995505 C-327.05231611 408.29677667 -327.05360927 401.61359829 -327.05493164 394.93041992 C-327.0550624 394.26534568 -327.05519316 393.60027144 -327.05532788 392.91504344 C-327.05959302 371.33872662 -327.06710715 349.76241241 -327.07629722 328.18609718 C-327.085987 305.39531627 -327.09199362 282.60453651 -327.09408849 259.81375355 C-327.09546405 246.15264753 -327.0998164 232.491549 -327.10791647 218.83044528 C-327.11318199 209.47627744 -327.11480474 200.1221135 -327.11350138 190.76794428 C-327.11285769 185.36237898 -327.11387893 179.95682681 -327.11920547 174.55126381 C-327.12403809 169.61119214 -327.12433956 164.67114256 -327.12089889 159.73106991 C-327.12047306 157.93563959 -327.12176995 156.14020795 -327.12488318 154.34478027 C-327.12884492 151.92075168 -327.1267648 149.49680484 -327.12304783 147.07277775 C-327.12567484 146.36147104 -327.12830186 145.65016433 -327.13100848 144.91730288 C-327.1141458 140.1141458 -327.1141458 140.1141458 -326 139 C-322.98330612 138.90066368 -319.98935491 138.86736371 -316.97219849 138.87542725 C-316.01286435 138.8740171 -315.05353021 138.87260695 -314.06512535 138.87115407 C-310.82351318 138.86747993 -307.58194419 138.87084679 -304.34033203 138.87402344 C-302.02621425 138.87262956 -299.71209673 138.87073083 -297.39797974 138.86836243 C-292.39811117 138.86385348 -287.39825083 138.86200907 -282.39838028 138.86190033 C-274.47909849 138.86076167 -266.55985891 138.84799468 -258.64059448 138.83233643 C-257.29098007 138.82973048 -255.94136565 138.82713168 -254.59175122 138.8245399 C-252.54573159 138.82060102 -250.49971197 138.81665453 -248.45369241 138.81267868 C-240.73036099 138.7977181 -233.0070278 138.78410463 -225.28369141 138.77197266 C-224.57747449 138.7708591 -223.87125757 138.76974553 -223.14364015 138.76859823 C-211.74311215 138.75108806 -200.34261972 138.74814949 -188.94208051 138.74982306 C-177.22027798 138.75110745 -165.49860656 138.73322513 -153.7768544 138.69880509 C-147.2028 138.6804097 -140.62900989 138.67094534 -134.05493546 138.68328094 C-127.85454475 138.69480042 -121.65462464 138.68282125 -115.45429611 138.65364647 C-113.19180397 138.64705798 -110.92926802 138.64878202 -108.66679382 138.65994453 C-92.56727333 138.73271145 -77.20557111 137.6472127 -62.79294407 129.85297656 C-60.26739327 128.65146913 -57.76461393 128.27646139 -55 128 C-55 127.34 -55 126.68 -55 126 C-52.35261084 124.5393715 -51.10551666 124 -48 124 C-48 123.34 -48 122.68 -48 122 C-46.6015625 120.80859375 -46.6015625 120.80859375 -44.625 119.4375 C-35.90934382 113.05831602 -29.02113221 106.18702984 -22.8125 97.40625 C-21 95 -21 95 -19 94 C-17.62886773 91.56045298 -16.35486472 89.13469624 -15.125 86.625 C-14.58601074 85.52961914 -14.58601074 85.52961914 -14.03613281 84.41210938 C-8.79858874 73.61353986 -5.744316 62.63414815 -3 51 C-2.34 51 -1.68 51 -1 51 C-0.67 34.17 -0.34 17.34 0 0 Z " fill="#344051" transform="translate(953,477)"/>
<path d="M0 0 C96.03281018 -0.04026156 96.03281018 -0.04026156 125.75291443 -0.05130005 C126.81285739 -0.05169472 127.87280036 -0.05208938 128.96486281 -0.05249601 C164.6580169 -0.06575036 200.35117124 -0.07624996 236.04432678 -0.08468628 C237.20954778 -0.08496239 238.37476877 -0.08523851 239.5752995 -0.08552299 C264.90102252 -0.09150934 290.22674562 -0.09704963 315.55246883 -0.10213066 C327.97288614 -0.10462525 340.39330343 -0.10721837 352.8137207 -0.10986328 C354.04967632 -0.1101248 355.28563194 -0.11038632 356.55904075 -0.11065576 C396.5922993 -0.11917263 436.62555219 -0.13419089 476.65880731 -0.15259444 C517.81132199 -0.17147808 558.96383353 -0.18377517 600.11635247 -0.18782998 C605.93396341 -0.18840626 611.75157433 -0.18905753 617.56918526 -0.18975449 C618.71413143 -0.18988933 619.8590776 -0.19002418 621.03871912 -0.19016311 C639.44076299 -0.19252302 657.84279716 -0.20178963 676.24483708 -0.21366407 C694.76230087 -0.22546469 713.27975507 -0.22992942 731.79722249 -0.22700275 C742.78759339 -0.22548604 753.77792912 -0.22949723 764.76829364 -0.24159509 C772.12607348 -0.24913805 779.48383049 -0.24929719 786.84161195 -0.24366363 C791.02355598 -0.24066682 795.20543386 -0.24067896 799.38737058 -0.24976636 C847.25025233 -0.34738949 847.25025233 -0.34738949 869.02392578 5.49755859 C872.50868165 6.38360104 876.03392325 7.06363194 879.5625 7.75 C880.80128906 7.99234375 882.04007813 8.2346875 883.31640625 8.484375 C884.20199219 8.65453125 885.08757813 8.8246875 886 9 C886 9.66 886 10.32 886 11 C886.99 11.103125 887.98 11.20625 889 11.3125 C892.46154999 11.8040401 895.50477165 12.87496678 898.75390625 14.1796875 C901.36431226 15.13305317 903.99509236 15.8133457 906.6875 16.5 C910.59567888 17.53356797 913.64139548 18.6969569 917 21 C919.80168196 22.45920935 922.54162069 23.82810776 925.5 24.9375 C928 26 928 26 931.0625 28.0625 C933.5601409 29.70988017 935.10458245 30.55455115 938 31 C938 31.66 938 32.32 938 33 C938.73347656 33.2784375 939.46695313 33.556875 940.22265625 33.84375 C952.05745907 38.77075652 963.65888538 47.60675212 973.07983398 56.25195312 C974.92926061 57.93560153 976.8118315 59.5713441 978.70703125 61.203125 C992.43186198 73.20129367 1005.29953024 86.48368795 1015 102 C1015 102.66 1015 103.32 1015 104 C1015.66 104 1016.32 104 1017 104 C1029 120.17128463 1029 120.17128463 1029 127 C1029.66 127 1030.32 127 1031 127 C1036.97280295 139.15119793 1042.46072572 151.24095877 1047 164 C1047.350625 164.83660156 1047.70125 165.67320312 1048.0625 166.53515625 C1049.1765048 169.46406055 1049.83645802 172.37583076 1050.5 175.4375 C1051.21616811 178.73420864 1051.94936875 181.85949828 1053.09375 185.03515625 C1054 188 1054 188 1054 194 C865.24 194 676.48 194 482 194 C482 403.88 482 613.76 482 830 C414.68 830 347.36 830 278 830 C278 619.79 278 409.58 278 193 C186.26 193 94.52 193 0 193 C0 129.31 0 65.62 0 0 Z " fill="#F7F7F7" transform="translate(97,230)"/>
<path d="M0 0 C67.98 0 135.96 0 206 0 C206.6441874 5.79768662 207.15765037 11.27422255 207.16796875 17.05859375 C207.17220352 17.79624969 207.17643829 18.53390564 207.18080139 19.29391479 C207.19064 21.67516869 207.19072394 24.05622942 207.1875 26.4375 C207.18659363 27.67093643 207.18659363 27.67093643 207.18566895 28.92929077 C207.1453369 49.22639093 205.43379036 69.17648389 203 89.3125 C202.91641235 90.01380035 202.83282471 90.71510071 202.7467041 91.43765259 C202.50580426 93.43467697 202.25312208 95.43026921 202 97.42578125 C201.855625 98.57473877 201.71125 99.72369629 201.5625 100.9074707 C201.02560139 103.85924793 200.15367219 106.24524422 199 109 C198.63368373 110.55524898 198.31230555 112.12172575 198.03515625 113.6953125 C197.8762793 114.5716333 197.71740234 115.4479541 197.55371094 116.35083008 C197.31056152 117.72404419 197.31056152 117.72404419 197.0625 119.125 C195.70865649 126.52588371 194.2251572 133.80195362 192 141 C191.34 141 190.68 141 190 141 C189.91363281 141.75023437 189.82726563 142.50046875 189.73828125 143.2734375 C188.85805176 149.68538445 187.44832694 154.66558577 184.34375 160.32421875 C182.81108924 163.37617405 181.76398508 166.44713444 180.6875 169.6875 C178.58050078 175.83347535 175.86600654 181.37076375 172.6784668 187.02612305 C171.02326969 189.97641253 169.56832811 192.64017797 169 196 C168.34 196 167.68 196 167 196 C166.7628125 196.8353125 166.525625 197.670625 166.28125 198.53125 C164.79277903 202.56101288 162.80752695 205.89606005 160.5 209.5 C159.8356897 210.54667847 159.8356897 210.54667847 159.15795898 211.61450195 C135.60466461 248.37929938 104.79059628 276.79504199 67.1875 298.8125 C66.41100098 299.26898926 65.63450195 299.72547852 64.83447266 300.19580078 C56.32566463 305.11107428 47.43491897 308.67901756 38.25 312.125 C36.4217459 312.81476207 34.59361674 313.50485542 32.765625 314.1953125 C31.96930664 314.49453613 31.17298828 314.79375977 30.35253906 315.10205078 C28.70299047 315.731673 27.07018045 316.40610555 25.45214844 317.11279297 C23 318 23 318 19 318 C19 318.66 19 319.32 19 320 C-35.21742271 333.15359474 -75.07706961 331 -137 331 C-137 414.49 -137 497.98 -137 584 C-199.37 584 -261.74 584 -326 584 C-326 437.15 -326 290.3 -326 139 C-208.1875 138.8125 -208.1875 138.8125 -171.05932617 138.79223633 C-160.02657803 138.76234071 -160.02657803 138.76234071 -148.99385071 138.72587585 C-144.09962348 138.70987499 -139.20560388 138.70766666 -134.31135559 138.71403503 C-128.04882955 138.72172194 -121.78678568 138.70523091 -115.5243479 138.67198312 C-113.23829182 138.66382584 -110.95218677 138.66382693 -108.66613615 138.67339098 C-92.57049526 138.7343499 -77.2018836 137.64532925 -62.79297894 129.85301143 C-60.26741698 128.65147294 -57.76463682 128.27646368 -55 128 C-55 127.34 -55 126.68 -55 126 C-52.35261084 124.5393715 -51.10551666 124 -48 124 C-48 123.34 -48 122.68 -48 122 C-46.6015625 120.80859375 -46.6015625 120.80859375 -44.625 119.4375 C-35.90934382 113.05831602 -29.02113221 106.18702984 -22.8125 97.40625 C-21 95 -21 95 -19 94 C-17.62886773 91.56045298 -16.35486472 89.13469624 -15.125 86.625 C-14.58601074 85.52961914 -14.58601074 85.52961914 -14.03613281 84.41210938 C-8.79858874 73.61353986 -5.744316 62.63414815 -3 51 C-2.34 51 -1.68 51 -1 51 C-0.67 34.17 -0.34 17.34 0 0 Z " fill="#F7F7F7" transform="translate(953,477)"/>
<path d="M0 0 C2.64005054 0.00053086 5.28009674 -0.0006466 7.92014694 -0.00194168 C12.12152011 -0.00290518 16.32283343 0.00280933 20.5241909 0.01420593 C22.09275971 0.01808042 23.66133277 0.02052107 25.22990608 0.02146149 C27.39315262 0.02359338 29.55627417 0.03221289 31.71949387 0.04276657 C32.93976273 0.04657837 34.16003159 0.05039017 35.41727829 0.05431747 C38.01419004 0.16652244 40.03402608 0.51319101 42.51197433 1.18803024 C43.9872188 1.29989677 45.46604617 1.36922983 46.9450798 1.40555954 C47.82439163 1.43277588 48.70370346 1.45999222 49.6096611 1.48803329 C50.56484634 1.51664948 51.52003159 1.54526566 52.50416183 1.57474899 C66.28406289 2.0862828 79.93428902 3.50706626 93.63697433 5.00053024 C95.5165181 5.20219803 95.5165181 5.20219803 97.43403244 5.40793991 C123.27157387 8.1802083 148.96290057 11.38396813 174.51197433 16.18803024 C176.00325851 16.46815964 176.00325851 16.46815964 177.52466965 16.75394821 C190.20239656 19.1608325 202.78349256 21.86494682 215.3122673 24.95707321 C219.68503101 26.03585296 224.05579233 27.10072504 228.46154404 28.03695297 C239.06283912 30.29642929 249.42340987 33.05337814 259.80103683 36.17240524 C261.36698766 36.63805331 262.9331025 37.10315011 264.49937057 37.56772995 C268.55483149 38.77220693 272.60807165 39.98398657 276.66083908 41.19749069 C280.82340082 42.44239102 284.9880968 43.6801099 289.15259933 44.91849899 C297.27445396 47.33479404 305.39396855 49.75883574 313.51197433 52.18803024 C313.51197433 52.84803024 313.51197433 53.50803024 313.51197433 54.18803024 C314.79072433 54.45615524 316.06947433 54.72428024 317.38697433 55.00053024 C322.51259851 56.13321985 327.50486921 57.62004325 332.51197433 59.18803024 C332.51197433 59.84803024 332.51197433 60.50803024 332.51197433 61.18803024 C333.12943527 61.29760056 333.74689621 61.40717087 334.38306808 61.52006149 C340.28909935 62.62575684 345.86394993 64.14164459 351.51197433 66.18803024 C351.51197433 66.84803024 351.51197433 67.50803024 351.51197433 68.18803024 C354.48197433 68.84803024 357.45197433 69.50803024 360.51197433 70.18803024 C360.51197433 70.84803024 360.51197433 71.50803024 360.51197433 72.18803024 C361.16423996 72.30920212 361.81650558 72.43037399 362.48853683 72.55521774 C367.29843776 73.47747013 371.90222899 74.48970301 376.51197433 76.18803024 C376.51197433 76.84803024 376.51197433 77.50803024 376.51197433 78.18803024 C377.12685715 78.32080368 377.74173996 78.45357712 378.37525558 78.59037399 C379.18349777 78.76697556 379.99173996 78.94357712 380.82447433 79.12553024 C381.62498215 79.29955368 382.42548996 79.47357712 383.25025558 79.65287399 C385.51197433 80.18803024 385.51197433 80.18803024 388.51197433 81.18803024 C388.51197433 81.84803024 388.51197433 82.50803024 388.51197433 83.18803024 C391.48197433 83.84803024 394.45197433 84.50803024 397.51197433 85.18803024 C397.51197433 85.84803024 397.51197433 86.50803024 397.51197433 87.18803024 C400.15197433 87.84803024 402.79197433 88.50803024 405.51197433 89.18803024 C405.51197433 89.84803024 405.51197433 90.50803024 405.51197433 91.18803024 C408.48197433 91.84803024 411.45197433 92.50803024 414.51197433 93.18803024 C414.51197433 93.84803024 414.51197433 94.50803024 414.51197433 95.18803024 C417.48197433 95.84803024 420.45197433 96.50803024 423.51197433 97.18803024 C423.51197433 97.84803024 423.51197433 98.50803024 423.51197433 99.18803024 C426.15197433 99.84803024 428.79197433 100.50803024 431.51197433 101.18803024 C431.51197433 101.84803024 431.51197433 102.50803024 431.51197433 103.18803024 C433.98697433 103.68303024 433.98697433 103.68303024 436.51197433 104.18803024 C436.51197433 104.84803024 436.51197433 105.50803024 436.51197433 106.18803024 C439.48197433 106.84803024 442.45197433 107.50803024 445.51197433 108.18803024 C445.51197433 108.84803024 445.51197433 109.50803024 445.51197433 110.18803024 C447.98697433 110.68303024 447.98697433 110.68303024 450.51197433 111.18803024 C450.51197433 111.84803024 450.51197433 112.50803024 450.51197433 113.18803024 C453.15197433 113.84803024 455.79197433 114.50803024 458.51197433 115.18803024 C458.51197433 115.84803024 458.51197433 116.50803024 458.51197433 117.18803024 C460.98697433 117.68303024 460.98697433 117.68303024 463.51197433 118.18803024 C463.51197433 118.84803024 463.51197433 119.50803024 463.51197433 120.18803024 C465.98697433 120.68303024 465.98697433 120.68303024 468.51197433 121.18803024 C468.51197433 121.84803024 468.51197433 122.50803024 468.51197433 123.18803024 C469.46072433 123.33240524 470.40947433 123.47678024 471.38697433 123.62553024 C474.51197433 124.18803024 474.51197433 124.18803024 476.51197433 125.18803024 C476.51197433 125.84803024 476.51197433 126.50803024 476.51197433 127.18803024 C478.98697433 127.68303024 478.98697433 127.68303024 481.51197433 128.18803024 C481.51197433 128.84803024 481.51197433 129.50803024 481.51197433 130.18803024 C483.16197433 130.51803024 484.81197433 130.84803024 486.51197433 131.18803024 C486.51197433 131.84803024 486.51197433 132.50803024 486.51197433 133.18803024 C488.16197433 133.51803024 489.81197433 133.84803024 491.51197433 134.18803024 C491.51197433 134.84803024 491.51197433 135.50803024 491.51197433 136.18803024 C494.15197433 136.84803024 496.79197433 137.50803024 499.51197433 138.18803024 C499.51197433 138.84803024 499.51197433 139.50803024 499.51197433 140.18803024 C501.16197433 140.51803024 502.81197433 140.84803024 504.51197433 141.18803024 C504.51197433 141.84803024 504.51197433 142.50803024 504.51197433 143.18803024 C505.25447433 143.29115524 505.99697433 143.39428024 506.76197433 143.50053024 C509.70932623 144.23736822 511.29580507 145.13602167 513.51197433 147.18803024 C513.51197433 147.84803024 513.51197433 148.50803024 513.51197433 149.18803024 C514.29572433 149.31178024 515.07947433 149.43553024 515.88697433 149.56303024 C518.51197433 150.18803024 518.51197433 150.18803024 520.51197433 152.18803024 C521.50197433 152.84803024 522.49197433 153.50803024 523.51197433 154.18803024 C524.46072433 154.84803024 525.40947433 155.50803024 526.38697433 156.18803024 C529.08071596 157.91202488 531.51148423 159.12903374 534.51197433 160.18803024 C534.51197433 160.84803024 534.51197433 161.50803024 534.51197433 162.18803024 C536.16197433 162.51803024 537.81197433 162.84803024 539.51197433 163.18803024 C539.51197433 163.84803024 539.51197433 164.50803024 539.51197433 165.18803024 C540.83197433 165.51803024 542.15197433 165.84803024 543.51197433 166.18803024 C543.51197433 166.84803024 543.51197433 167.50803024 543.51197433 168.18803024 C544.83197433 168.51803024 546.15197433 168.84803024 547.51197433 169.18803024 C547.51197433 169.84803024 547.51197433 170.50803024 547.51197433 171.18803024 C548.25447433 171.27053024 548.99697433 171.35303024 549.76197433 171.43803024 C553.06897065 172.33993833 554.19649799 173.72316833 556.51197433 176.18803024 C558.64506626 177.42315103 558.64506626 177.42315103 560.51197433 178.18803024 C560.51197433 178.84803024 560.51197433 179.50803024 560.51197433 180.18803024 C561.31634933 180.31178024 562.12072433 180.43553024 562.94947433 180.56303024 C563.79509933 180.76928024 564.64072433 180.97553024 565.51197433 181.18803024 C565.84197433 181.84803024 566.17197433 182.50803024 566.51197433 183.18803024 C567.50197433 183.84803024 568.49197433 184.50803024 569.51197433 185.18803024 C514.27454748 185.23384031 459.03712255 185.26906601 403.79968042 185.2901609 C397.27360258 185.29266222 390.74752478 185.29525087 384.22144699 185.29789352 C382.27266731 185.29868046 382.27266731 185.29868046 380.28451835 185.29948328 C359.26752866 185.30817822 338.25054996 185.32394317 317.23356678 185.34233584 C295.65702377 185.36106026 274.08048649 185.37215234 252.50393569 185.37620723 C239.19756311 185.37894701 225.89122155 185.38759037 212.58485852 185.40386318 C203.45155898 185.41446144 194.3182754 185.41762444 185.18497016 185.415033 C179.92107634 185.41375613 174.65723663 185.41566878 169.39335251 185.42644119 C164.56277824 185.43625404 159.73229389 185.43661365 154.90171526 185.42982803 C153.16520011 185.42899076 151.42867908 185.4314593 149.69217528 185.43779661 C133.95318474 185.49183936 118.73989765 184.41748151 103.51197433 180.18803024 C101.45555227 179.66649093 99.39605272 179.15850542 97.33594894 178.65171432 C94.32512958 177.90972121 91.31879505 177.15032113 88.3122673 176.39115524 C86.77958142 176.00595039 85.24604628 175.62410891 83.71168137 175.24564743 C74.25637623 172.91055608 65.41725754 170.20031656 56.51197433 166.18803024 C54.67531428 165.40725073 52.83856057 164.62667624 50.99952316 163.85151291 C48.40466142 162.75545395 45.81668767 161.64363068 43.22877121 160.53129196 C41.91152132 159.96652271 40.59314675 159.40436982 39.27369308 158.84476852 C32.00492464 155.76055982 25.10222658 152.5808622 18.51197433 148.18803024 C16.70975549 147.19006689 14.89837786 146.2082878 13.07447433 145.25053024 C5.36417437 141.08165081 -1.58022368 136.26777855 -8.34740067 130.70365524 C-10.6382534 129.08166462 -12.85206703 128.12812738 -15.48802567 127.18803024 C-15.48802567 126.52803024 -15.48802567 125.86803024 -15.48802567 125.18803024 C-16.97302567 124.69303024 -16.97302567 124.69303024 -18.48802567 124.18803024 C-19.61437592 123.06167999 -20.73637965 121.93063776 -21.83568192 120.77787399 C-23.93788289 118.7551889 -26.19475089 116.99061919 -28.48802567 115.18803024 C-32.06004853 112.36745515 -35.35509811 109.49998223 -38.48802567 106.18803024 C-41.53838571 103.05293797 -44.69142231 100.12141329 -47.98802567 97.25053024 C-51.55951947 94.10548346 -54.5312389 90.9051336 -57.48802567 87.18803024 C-58.25115067 86.44553024 -59.01427567 85.70303024 -59.80052567 84.93803024 C-61.48802567 83.18803024 -61.48802567 83.18803024 -61.48802567 81.18803024 C-62.47802567 80.85803024 -63.46802567 80.52803024 -64.48802567 80.18803024 C-65.42856851 78.81080679 -66.36090949 77.42680406 -67.23802567 76.00834274 C-69.2378144 73.0961504 -71.68318488 70.59150562 -74.09740067 68.02006149 C-75.48802567 66.18803024 -75.48802567 66.18803024 -75.48802567 63.18803024 C-76.14802567 63.18803024 -76.80802567 63.18803024 -77.48802567 63.18803024 C-77.54990067 62.63115524 -77.61177567 62.07428024 -77.67552567 61.50053024 C-78.3700764 58.99044644 -78.3700764 58.99044644 -80.67552567 57.00053024 C-85.82334324 51.85271267 -89.3602229 45.72798149 -92.48802567 39.18803024 C-94.31740955 35.86390587 -96.23338798 32.59726938 -98.23802567 29.37553024 C-99.48802567 27.18803024 -99.48802567 27.18803024 -99.48802567 25.18803024 C-100.14802567 24.85803024 -100.80802567 24.52803024 -101.48802567 24.18803024 C-102.36917871 22.34429746 -103.16944248 20.4614821 -103.92552567 18.56303024 C-104.36122879 17.48279587 -104.79693192 16.40256149 -105.24583817 15.28959274 C-105.65576004 14.26607712 -106.06568192 13.24256149 -106.48802567 12.18803024 C-107.08673263 10.76904759 -107.68963331 9.35180969 -108.30052567 7.93803024 C-108.69240067 7.03053024 -109.08427567 6.12303024 -109.48802567 5.18803024 C-104.46363104 4.00813327 -99.41495251 3.83518526 -94.28294754 3.58256149 C-90.47201926 3.41728929 -90.47201926 3.41728929 -86.73997879 2.70389938 C-83.43805797 1.9475075 -80.11425244 1.82852547 -76.74193192 1.65287399 C-75.93520538 1.60976089 -75.12847885 1.5666478 -74.29730606 1.52222824 C-71.54872114 1.38150239 -68.79981451 1.25174177 -66.05052567 1.12553024 C-64.61595016 1.05874573 -64.61595016 1.05874573 -63.15239334 0.99061203 C-42.10741015 0.05199405 -21.06175911 -0.00527162 0 0 Z " fill="#333F50" transform="translate(144.4880256652832,1056.81196975708)"/>
<path d="M0 0 C-2.35494646 4.373472 -4.48915504 7.48915504 -8 11 C-9.33776231 12.99833439 -10.58639945 15.03929481 -11.8359375 17.09375 C-13.1095461 19.17939093 -14.38857698 21.1583737 -16 23 C-16.66 23 -17.32 23 -18 23 C-18.185625 24.2065625 -18.185625 24.2065625 -18.375 25.4375 C-18.58125 26.283125 -18.7875 27.12875 -19 28 C-19.66 28.33 -20.32 28.66 -21 29 C-22.11634152 30.65051288 -22.11634152 30.65051288 -23.125 32.5625 C-23.74375 33.696875 -24.3625 34.83125 -25 36 C-25.66 36 -26.32 36 -27 36 C-27.185625 37.2065625 -27.185625 37.2065625 -27.375 38.4375 C-27.58125 39.283125 -27.7875 40.12875 -28 41 C-28.99 41.495 -28.99 41.495 -30 42 C-30.33 42.99 -30.66 43.98 -31 45 C-32 48 -32 48 -34 49 C-34.98097279 50.74929696 -34.98097279 50.74929696 -35.875 52.8125 C-37.49950182 56.21910455 -39.27883944 58.36954479 -42 61 C-42.70211894 62.65204456 -43.36971413 64.31923769 -44 66 C-45.5 68.3125 -45.5 68.3125 -47 70 C-47.66 70 -48.32 70 -49 70 C-49.185625 71.175625 -49.185625 71.175625 -49.375 72.375 C-50 75 -50 75 -52 77 C-52.91327769 78.68817998 -53.78436931 80.39949491 -54.625 82.125 C-55.29402344 83.49011719 -55.29402344 83.49011719 -55.9765625 84.8828125 C-56.31429687 85.58148437 -56.65203125 86.28015625 -57 87 C-57.66 87 -58.32 87 -59 87 C-59.33 88.65 -59.66 90.3 -60 92 C-60.66 92 -61.32 92 -62 92 C-62.33 93.65 -62.66 95.3 -63 97 C-63.66 97 -64.32 97 -65 97 C-65.33 98.65 -65.66 100.3 -66 102 C-66.66 102 -67.32 102 -68 102 C-68.28875 103.27875 -68.5775 104.5575 -68.875 105.875 C-69.54102483 108.82453855 -69.80202597 109.80202597 -72 112 C-72.33 112.99 -72.66 113.98 -73 115 C-73.66 115 -74.32 115 -75 115 C-75.33 116.65 -75.66 118.3 -76 120 C-76.66 120 -77.32 120 -78 120 C-78.144375 120.763125 -78.28875 121.52625 -78.4375 122.3125 C-79 125 -79 125 -80 128 C-80.66 128 -81.32 128 -82 128 C-82.33 129.65 -82.66 131.3 -83 133 C-83.66 133 -84.32 133 -85 133 C-85.33 134.98 -85.66 136.96 -86 139 C-86.66 139 -87.32 139 -88 139 C-88.66 141.64 -89.32 144.28 -90 147 C-90.66 147 -91.32 147 -92 147 C-92.144375 147.763125 -92.28875 148.52625 -92.4375 149.3125 C-93 152 -93 152 -94 155 C-94.66 155 -95.32 155 -96 155 C-96.33 156.98 -96.66 158.96 -97 161 C-97.33 161 -97.66 161 -98 161 C-98 108.2 -98 55.4 -98 1 C-77.643125 0.7525 -77.643125 0.7525 -56.875 0.5 C-52.61706543 0.44779297 -48.35913086 0.39558594 -43.97216797 0.34179688 C-38.70336914 0.27832031 -38.70336914 0.27832031 -36.22341919 0.24865723 C-34.52069733 0.22813367 -32.81797939 0.20728316 -31.11526489 0.18615723 C-20.74275242 0.05773167 -10.37349255 -0.03368321 0 0 Z " fill="#1E2734" transform="translate(915,808)"/>
<path d="" fill="#1D2532" transform="translate(0,0)"/>
</svg>
